<?xml version="1.0" encoding="utf-8"?>
<svg width="64.5" height="64.5" viewBox="0 0 64.5 64.5" fill="none" xmlns="http://www.w3.org/2000/svg">
  <g transform="translate(0.25 0.25)">
    <path d="M0 32C0 14.3269 14.3269 0 32 0C49.6731 0 64 14.3269 64 32C64 49.6731 49.6731 64 32 64C14.3269 64 0 49.6731 0 32Z" fill="#FF5454" fill-rule="evenodd" stroke-width="0.5" stroke="#FA7878" />
    <path d="M0 18C0 8.05887 8.05887 0 18 0C27.9411 0 36 8.05887 36 18C36 27.9411 27.9411 36 18 36C8.05887 36 0 27.9411 0 18Z" fill="#FA6666" fill-rule="evenodd" stroke-width="0.5" stroke="#FF6363" transform="translate(14 14)" />
    <path d="M0 2.5C0 1.11929 1.11929 0 2.5 0C3.88071 0 5 1.11929 5 2.5C5 3.88071 3.88071 5 2.5 5C1.11929 5 0 3.88071 0 2.5Z" fill="#FFFFFF" fill-rule="evenodd" transform="translate(30 30)" />
    <path d="M1.25 0L1.25 0C1.94045 0 2.5 0.559549 2.5 1.25L2.5 12.75C2.5 13.4404 1.94045 14 1.25 14L1.25 14C0.559549 14 0 13.4404 0 12.75L0 1.25C0 0.559549 0.559549 0 1.25 0L1.25 0Z" fill="#FFFFFF" transform="translate(31 17)" />
    <path d="M1 0L1 0C1.55236 0 2 0.447639 2 1L2 9C2 9.55236 1.55236 10 1 10L1 10C0.447639 10 0 9.55236 0 9L0 1C0 0.447639 0.447639 0 1 0L1 0Z" fill="#FFFFFF" fill-opacity="0.698" transform="matrix(0 1 -1 0 44 32)" />
    <path d="M0.5 0L0.5 0C0.77618 0 1 0.22382 1 0.5L1 6.5C1 6.77618 0.77618 7 0.5 7L0.5 7C0.22382 7 0 6.77618 0 6.5L0 0.5C0 0.22382 0.22382 0 0.5 0L0.5 0Z" fill="#FFFFFF" transform="translate(50 28)" />
    <path d="M0.5 0L0.5 0C0.77618 0 1 0.22382 1 0.5L1 6.5C1 6.77618 0.77618 7 0.5 7L0.5 7C0.22382 7 0 6.77618 0 6.5L0 0.5C0 0.22382 0.22382 0 0.5 0L0.5 0Z" fill="#FFFFFF" transform="matrix(0 1 -1 0 36 13)" />
    <path d="M0.5 0L0.5 0C0.77618 0 1 0.22382 1 0.5L1 6.5C1 6.77618 0.77618 7 0.5 7L0.5 7C0.22382 7 0 6.77618 0 6.5L0 0.5C0 0.22382 0.22382 0 0.5 0L0.5 0Z" fill="#FFFFFF" transform="matrix(0 1 -1 0 36 50)" />
    <path d="M0.5 0L0.5 0C0.77618 0 1 0.22382 1 0.5L1 6.5C1 6.77618 0.77618 7 0.5 7L0.5 7C0.22382 7 0 6.77618 0 6.5L0 0.5C0 0.22382 0.22382 0 0.5 0L0.5 0Z" fill="#FFFFFF" transform="translate(13 28)" />
  </g>
</svg>